<?xml version="1.0" encoding="UTF-8"?> <!-- Generator: Adobe Illustrator 23.0.2, SVG Export Plug-In . SVG Version: 6.00 Build 0) --> <svg xmlns="http://www.w3.org/2000/svg" xmlns:xlink="http://www.w3.org/1999/xlink" id="Слой_1" x="0px" y="0px" viewBox="0 0 24 24" style="enable-background:new 0 0 24 24;" xml:space="preserve"> <style type="text/css"> .st0{fill-rule:evenodd;clip-rule:evenodd;fill:#106466;} </style> <path class="st0" d="M17.3,9l3.7,2l-2.3,2l0,0l2.3,3.1l-2.3,1.2v3.1L12,24l-6.8-3.6v-3.1L3,16.1L5.2,13L3,11l3.7-2 c-0.1,0.4-0.2,0.8-0.2,1.3l-1.8,1l1.2,1l0.6-0.3c0.1,0.3,0.1,0.7,0.3,1L6,13.4l6,3.1l6-3.1l-0.8-0.5c0.1-0.3,0.2-0.6,0.3-0.9 l0.5,0.3l1.2-1.1l-1.7-0.9C17.5,9.8,17.4,9.4,17.3,9z M12.5,17.2v5.4l5.3-2.8v-2l-3.5,1.9C14.2,19.8,12.5,17.2,12.5,17.2z M6.2,17.8 v1.9l5.2,2.8v-5.4l-1.7,2.5C9.7,19.8,6.2,17.8,6.2,17.8z M4.5,15.7l5,2.7l1.1-1.6l-5-2.6C5.5,14.3,4.5,15.7,4.5,15.7z M13.5,16.9 l1.1,1.6l5-2.7l-1.1-1.5C18.4,14.3,13.5,16.9,13.5,16.9z M12.3,15.2h-0.6l0-2.7h0.6L12.3,15.2z M11.1,13.7h-0.6l0-1.7h0.6L11.1,13.7 z M13.5,13.7h-0.6l0-1.7h0.6L13.5,13.7z M10.4,11.3L10,10.5c-0.7,0.3-2.2,2.3-2.2,2.3C6.7,10.2,8,8,9.1,7.1C9,6.4,8.5,3,11.9,0l0,0 l0,0c3.5,2.9,2.9,6.4,2.8,7.1c1.1,0.8,2.4,3.1,1.2,5.7c0,0-1.4-2-2.2-2.3l-0.3,0.7l-1.6,0C12,11.3,10.4,11.3,10.4,11.3z M12,1.3 c-1.1,0.9-2.4,3.4-1.9,6.2C9.4,8.2,8.6,9,8.4,10.7C9,9.9,9.8,9.4,10.5,9.3c0,0,0.4,0.8,0.5,1l1,0l1,0c0.1-0.2,0.5-1,0.5-1 c0.7,0.1,1.5,0.6,2.1,1.4c-0.1-1.6-1-2.5-1.7-3.1C14.4,4.9,13.1,2.3,12,1.3C12,1.3,12,1.3,12,1.3z M11.9,7c-0.3,0-0.5-0.2-0.5-0.5 S11.7,6,11.9,6s0.5,0.2,0.5,0.5S12.2,7,11.9,7z M11.9,5.2c-0.6,0-1-0.5-1-1c0-0.6,0.5-1,1-1s1,0.5,1,1C13,4.7,12.5,5.2,11.9,5.2z M11.9,3.8c0.2,0,0.4,0.2,0.4,0.4c0,0.2-0.2,0.4-0.4,0.4c-0.2,0-0.4-0.2-0.4-0.4C11.6,3.9,11.7,3.8,11.9,3.8z"></path> </svg> 