<svg class="injected-svg" id="svg-c1945b09-cd92-4341-a074-7e5821867c01" height="100%" width="100%" viewBox="0 0 540 508" xmlns="http://www.w3.org/2000/svg">
    <g xmlns="http://www.w3.org/2000/svg" fill="#f51a20" id="shape-svg"><title>forma</title><g id="Слой_2" data-name="Слой 2"><g id="Слой_1-2" data-name="Слой 1"><g id="_b45851ff" data-name="#b45851ff"><path transform="translate(74.74999999999999, 190) scale(0.5,0.5)" d="M74.78,2.23a7.88,7.88,0,0,1,1.44-2A9.91,9.91,0,0,1,78.77,0c3,.06,6,0,9,0H220q3,0,6,0a10.37,10.37,0,0,1,2.55.19,13.88,13.88,0,0,1,2.28,3.5Q238,16.11,245.19,28.53a24,24,0,0,1,2.34,4.39,23.23,23.23,0,0,1-3.38,2.14,25.16,25.16,0,0,1-3.35,1.81,22.28,22.28,0,0,1-1.9-3.09c-4.67-8.16-9.43-16.26-14.06-24.44-.32-.46-.6-1.09-1.23-1.16a34.21,34.21,0,0,0-5-.1H89.82q-3.19,0-6.37,0a9.84,9.84,0,0,0-2.54.2,7.56,7.56,0,0,0-1.44,2c-1.29,2.36-2.67,4.68-4,7q-29,50.16-57.94,100.35c-2.49,4.22-4.83,8.52-7.38,12.71a6.81,6.81,0,0,0-.8,1.73,5.72,5.72,0,0,0,.94,2.2c1.49,2.44,2.88,4.93,4.31,7.4q31.78,55,63.57,110.11c.91,1.45,1.51,3.13,2.75,4.35a28.4,28.4,0,0,0,5.22.16H218.65a28.65,28.65,0,0,0,5.24-.16,12.44,12.44,0,0,0,2.15-3.27q6.12-10.6,12.24-21.21a22.55,22.55,0,0,1,2.17-3.51,20,20,0,0,1,3.22,1.66,18.73,18.73,0,0,1,3.53,2.29,27.62,27.62,0,0,1-2.14,4q-7,12.11-14,24.18c-.81,1.32-1.34,2.89-2.52,3.94a10.88,10.88,0,0,1-2.55.19c-3.13-.06-6.26,0-9.38,0H88.14c-3.12,0-6.25,0-9.37,0a10.38,10.38,0,0,1-2.55-.2,17.6,17.6,0,0,1-2.38-3.76q-35-60.55-69.93-121.13c-1-1.76-2-3.53-3.1-5.27A5.11,5.11,0,0,1,0,132.08a6.87,6.87,0,0,1,.81-1.71c2-3.27,3.82-6.67,5.79-10Q38.49,65.14,70.41,9.89C71.85,7.32,73.39,4.82,74.78,2.23Z"></path></g></g></g></g><g xmlns="http://www.w3.org/2000/svg" fill="#f51a20" id="icon-svg">
    <path transform="translate(101.5, 208.5) scale(0.5,0.5)" d="M 36.922 33.274 C 35.066 34.524, 32.524 37.066, 31.274 38.922 C 29.001 42.294, 29 42.318, 29 83 C 29 123.682, 29.001 123.706, 31.274 127.078 C 32.524 128.934, 35.066 131.476, 36.922 132.726 L 40.296 135 100 135 L 159.704 135 163.078 132.726 C 164.934 131.476, 167.476 128.934, 168.726 127.078 C 170.999 123.706, 171 123.682, 171 83 C 171 42.318, 170.999 42.294, 168.726 38.922 C 167.476 37.066, 164.934 34.524, 163.078 33.274 L 159.704 31 100 31 L 40.296 31 36.922 33.274 M 67.500 67.718 C 60.900 72.928, 54.870 78.467, 54.101 80.028 C 51.979 84.329, 53.964 87.762, 62.295 94.200 C 66.258 97.261, 71.803 101.610, 74.618 103.863 L 79.736 107.960 84.368 102.065 C 86.916 98.822, 89 95.708, 89 95.146 C 89 94.583, 85.865 91.732, 82.033 88.811 C 78.202 85.890, 75.072 83.275, 75.079 83 C 75.086 82.725, 78.043 80.277, 81.650 77.559 C 85.258 74.842, 88.433 72.034, 88.707 71.321 C 89.099 70.300, 84.910 64.267, 80.064 58.873 C 79.754 58.528, 74.100 62.508, 67.500 67.718 M 115.535 64.163 C 112.962 67.476, 111.067 70.733, 111.324 71.402 C 111.581 72.071, 114.742 74.842, 118.350 77.559 C 121.957 80.277, 124.914 82.725, 124.921 83 C 124.928 83.275, 121.798 85.890, 117.967 88.811 C 114.135 91.732, 111 94.583, 111 95.146 C 111 95.708, 113.084 98.822, 115.632 102.065 L 120.264 107.960 125.382 103.863 C 128.197 101.610, 133.742 97.261, 137.705 94.200 C 146.036 87.762, 148.021 84.329, 145.899 80.027 C 145.130 78.466, 139.035 72.903, 132.356 67.664 L 120.213 58.139 115.535 64.163 M 72 157.050 C 72 162.507, 73.957 167.386, 76.545 168.379 C 79.739 169.604, 122.402 169.012, 124.087 167.718 C 126.786 165.646, 128 162.341, 128 157.066 L 128 152 100 152 L 72 152 72 157.050" stroke="none" fill-rule="evenodd"></path>
</g>
    <path xmlns="http://www.w3.org/2000/svg" id="SvgjsPath6980576" d="M27.63-32.50L27.63-32.50Q27.63-35.43 25.68-37.38Q23.73-39.33 20.80-39.33L20.80-39.33L0.65-39.33L0.65-45.50L20.80-45.50Q23.46-45.50 25.84-44.46Q28.21-43.42 29.96-41.66Q31.72-39.91 32.76-37.54Q33.80-35.16 33.80-32.50L33.80-32.50Q33.80-29.84 32.76-27.46Q31.72-25.09 29.96-23.34Q28.21-21.58 25.84-20.54Q23.46-19.50 20.80-19.50L20.80-19.50L12.03-19.50L12.03 0L5.85 0L5.85-25.68L20.80-25.68Q23.73-25.68 25.68-27.63Q27.63-29.57 27.63-32.50ZM53.95 0L36.40 0L36.40-5.85L42.25-5.85L42.25-26L37.70-26L37.70-31.85L48.10-31.85L48.10-28.60Q48.88-29.71 50.05-30.55L50.05-30.55Q51.02-31.27 52.49-31.88Q53.95-32.50 55.90-32.50L55.90-32.50L58.50-32.50L58.50-26L54.60-26Q53.11-26 51.90-25.48Q50.70-24.96 49.85-24.38L49.85-24.38Q48.81-23.66 48.10-22.75L48.10-22.75L48.10-5.85L53.95-5.85L53.95 0ZM85.80-20.48L85.80-11.38Q85.80-8.71 84.92-6.50Q84.05-4.29 82.45-2.70Q80.86-1.10 78.65-0.23Q76.44 0.65 73.78 0.65L73.78 0.65Q71.11 0.65 68.90-0.23Q66.69-1.10 65.10-2.70Q63.51-4.29 62.63-6.50Q61.75-8.71 61.75-11.38L61.75-11.38L61.75-20.48Q61.75-23.14 62.63-25.35Q63.51-27.56 65.10-29.15Q66.69-30.75 68.90-31.62Q71.11-32.50 73.78-32.50L73.78-32.50Q76.44-32.50 78.65-31.62Q80.86-30.75 82.45-29.15Q84.05-27.56 84.92-25.35Q85.80-23.14 85.80-20.48L85.80-20.48ZM67.60-20.48L67.60-11.38Q67.60-8.64 69.32-6.92Q71.05-5.20 73.78-5.20L73.78-5.20Q76.50-5.20 78.23-6.92Q79.95-8.64 79.95-11.38L79.95-11.38L79.95-20.48Q79.95-23.21 78.23-24.93Q76.50-26.65 73.78-26.65L73.78-26.65Q71.05-26.65 69.32-24.93Q67.60-23.21 67.60-20.48L67.60-20.48ZM89.70-5.85L95.55-5.85L95.55-26L89.70-26L89.70-31.85L95.55-31.85L95.55-34.45Q95.55-36.86 96.36-38.90Q97.17-40.95 98.64-42.41Q100.10-43.88 102.11-44.69Q104.13-45.50 106.60-45.50L106.60-45.50L118.95-45.50L118.95-39.65L106.60-39.65Q104.39-39.65 102.89-38.16Q101.40-36.66 101.40-34.45L101.40-34.45L101.40-31.85L118.95-31.85L118.95-5.85L124.80-5.85L124.80 0L89.70 0L89.70-5.85ZM101.40-5.85L113.10-5.85L113.10-26L101.40-26L101.40-5.85ZM130.65-11.05L130.65-26L124.80-26L124.80-31.85L130.65-31.85L130.65-42.25L136.50-42.25L136.50-31.85L143-31.85L143-26L136.50-26L136.50-11.05Q136.50-8.84 138.00-7.35Q139.49-5.85 141.70-5.85L141.70-5.85L144.95-5.85L144.95 0L141.70 0Q139.23 0 137.22-0.81Q135.20-1.63 133.74-3.09Q132.28-4.55 131.46-6.57Q130.65-8.58 130.65-11.05L130.65-11.05ZM184.28-32.50L184.28-32.50Q184.28-35.43 182.33-37.38Q180.38-39.33 177.45-39.33L177.45-39.33L157.30-39.33L157.30-45.50L177.45-45.50Q180.12-45.50 182.49-44.46Q184.86-43.42 186.62-41.66Q188.37-39.91 189.41-37.54Q190.45-35.16 190.45-32.50L190.45-32.50Q190.45-29.84 189.41-27.46Q188.37-25.09 186.62-23.34Q184.86-21.58 182.49-20.54Q180.12-19.50 177.45-19.50L177.45-19.50L168.68-19.50L168.68 0L162.50 0L162.50-25.68L177.45-25.68Q180.38-25.68 182.33-27.63Q184.28-29.57 184.28-32.50ZM204.10-45.50L204.10 0L198.25 0L198.25-39.65L193.70-39.65L193.70-45.50L204.10-45.50ZM234 0L220.35 0Q215.93 0 213.27-2.67Q210.60-5.33 210.60-9.75L210.60-9.75Q210.60-14.17 213.27-16.84Q215.93-19.50 220.35-19.50L220.35-19.50L228.15-19.50L228.15-21.45Q228.15-23.40 226.85-24.70Q225.55-26 223.60-26L223.60-26L215.15-26L215.15-31.85L223.60-31.85Q228.28-31.85 231.14-28.99Q234-26.13 234-21.45L234-21.45L234 0ZM228.15-13.65L220.35-13.65Q218.66-13.65 217.56-12.54Q216.45-11.44 216.45-9.75L216.45-9.75Q216.45-8.06 217.56-6.96Q218.66-5.85 220.35-5.85L220.35-5.85L228.15-5.85L228.15-13.65ZM249.60-31.85L249.60-28.60Q250.38-29.71 251.55-30.55L251.55-30.55Q252.53-31.27 253.99-31.88Q255.45-32.50 257.40-32.50L257.40-32.50Q259.35-32.50 261.11-31.69Q262.86-30.88 264.23-29.41Q265.59-27.95 266.37-25.90Q267.15-23.86 267.15-21.45L267.15-21.45L267.15 0L261.30 0L261.30-21.45Q261.30-23.66 259.81-25.16Q258.31-26.65 256.10-26.65L256.10-26.65Q254.61-26.65 253.40-26.13Q252.20-25.61 251.36-25.03L251.36-25.03Q250.31-24.31 249.60-23.40L249.60-23.40L249.60 0L243.75 0L243.75-26L239.20-26L239.20-31.85L249.60-31.85Z" fill="#FFF" fontsize="65" transform="matrix(1,0,0,1,197.35,277.925)"></path>
</svg>