<?xml version="1.0" encoding="UTF-8"?> <!-- Generator: Adobe Illustrator 23.0.2, SVG Export Plug-In . SVG Version: 6.00 Build 0) --> <svg xmlns="http://www.w3.org/2000/svg" xmlns:xlink="http://www.w3.org/1999/xlink" id="Layer_1" x="0px" y="0px" viewBox="0 0 77.6 77.6" style="enable-background:new 0 0 77.6 77.6;" xml:space="preserve"> <style type="text/css"> .st0{fill:#106466;} </style> <title>re</title> <g> <g> <path class="st0" d="M70.2,55.9c-0.2-0.1-0.4-0.1-0.7-0.1l-13.9,1.9c-0.8,0.2-1.3,1-1.2,1.8c0.2,0.7,0.8,1.2,1.6,1.2l10.6-1.4 C55.3,74.7,33.7,78,18.3,66.8C9.3,60.2,4,49.5,4.2,38.3l0,0c0-1.3,0.1-2.6,0.3-3.8c0.1-0.7-0.3-1.4-1-1.6l-0.3-0.1 c-0.8-0.1-1.6,0.5-1.7,1.3c-0.2,1.4-0.3,2.7-0.3,4.1l0,0c-0.4,16.5,10,31.3,25.7,36.4c15.3,5,32.2-0.3,41.9-13.1l1.4,10.1 c0,0.8,0.7,1.5,1.5,1.5s1.5-0.7,1.5-1.5c0-0.1,0-0.1,0-0.2c0-0.1,0-0.1,0-0.2l-1.9-13.9C71.1,56.6,70.7,56.1,70.2,55.9z"></path> <path class="st0" d="M73.6,71.1c0,0.1,0,0.1,0,0.2c0,0,0,0.1,0,0.2c0,0.5-0.2,1-0.6,1.4c-0.4,0.4-0.9,0.6-1.4,0.6 c-0.5,0-1-0.2-1.4-0.6c-0.4-0.4-0.6-0.9-0.6-1.4l-1.2-8.8C58.5,75,41.9,80,26.7,75c-16-5.2-26.4-20.1-26-36.9 c0-1.4,0.1-2.8,0.3-4.2c0.2-1.1,1.1-1.9,2.2-1.7l0.1,0l0.3,0.1c0.9,0.3,1.5,1.2,1.4,2.1c-0.2,1.3-0.3,2.5-0.3,3.8 c-0.2,11.1,5,21.6,14,28.1c7.3,5.4,16.3,7.5,25.3,6.1c8.6-1.3,16.2-5.8,21.5-12.6L56,61.2c-1,0.1-1.9-0.6-2.1-1.6 c-0.2-1.1,0.5-2.1,1.5-2.4l14-1.9c0.3,0,0.6,0,0.9,0.1c0.7,0.2,1.2,0.9,1.4,1.6L73.6,71.1C73.6,71,73.6,71,73.6,71.1z M70.6,71.6 c0,0.2,0.1,0.4,0.3,0.6c0.2,0.2,0.4,0.3,0.7,0.3c0.3,0,0.5-0.1,0.7-0.3c0.2-0.2,0.3-0.4,0.3-0.7c0,0,0-0.1,0-0.1 c0-0.1,0-0.1,0-0.2l-1.9-13.9c-0.1-0.4-0.3-0.7-0.7-0.8l0,0c-0.1,0-0.3-0.1-0.4,0l-14,1.9c-0.5,0.1-0.8,0.6-0.7,1.2 c0.1,0.5,0.5,0.8,1,0.8l11.7-1.6L67,59.6c-5.5,7.6-13.6,12.5-22.9,14c-9.2,1.4-18.5-0.8-26-6.3C8.9,60.5,3.5,49.7,3.7,38.3 c0-1.3,0.1-2.6,0.3-3.9c0.1-0.5-0.2-0.9-0.7-1.1l-0.2-0.1c-0.5,0-1,0.3-1.1,0.9c-0.2,1.3-0.3,2.7-0.3,4C1.3,54.5,11.5,69,27,74.1 c15.1,5,31.7-0.3,41.3-13l0.7-1l1.5,11.3C70.6,71.5,70.6,71.5,70.6,71.6z"></path> </g> <g> <path class="st0" d="M4.4,6l1.9,14c0.1,0.8,0.9,1.4,1.7,1.3l14-1.9c0.8-0.1,1.4-0.9,1.3-1.7c-0.1-0.8-0.9-1.4-1.7-1.3l0,0l0,0 l-10,1.3c11.7-15,33.4-17.7,48.4-6c9.7,7.5,14.6,19.6,13,31.7c-0.2,0.8,0.4,1.6,1.2,1.8c0.8,0.2,1.6-0.4,1.8-1.2 c0-0.1,0-0.1,0-0.2l0,0C78.7,23.4,64.3,4.5,43.8,1.7C30.4-0.1,17,5.4,8.8,16.3L7.4,5.6c-0.1-0.6-0.5-1-1-1.2 C6.2,4.3,6,4.3,5.7,4.4C4.9,4.5,4.3,5.2,4.4,6z"></path> <path class="st0" d="M76.5,33.9c0.4,3.3,0.4,6.7,0,10.1c0,0.1,0,0.2,0,0.3c-0.2,1.1-1.3,1.8-2.4,1.6c-1.1-0.2-1.8-1.3-1.6-2.4 c1.6-11.9-3.3-23.8-12.8-31.2c-7.2-5.6-16.1-8-25.1-6.9c-8.6,1.1-16.3,5.3-21.8,11.9l8.8-1.2c0.5-0.1,1.1,0.1,1.5,0.4 c0.4,0.3,0.7,0.8,0.8,1.3c0,0.5-0.1,1.1-0.4,1.5c-0.3,0.4-0.8,0.7-1.3,0.8L8,21.7c-1.1,0.1-2.1-0.6-2.2-1.7L3.9,6 C3.8,5,4.6,4,5.7,3.9c0.3,0,0.6,0,0.9,0.1c0.7,0.2,1.2,0.9,1.3,1.6c0,0,0,0,0,0L9.2,15C17.5,4.7,30.7-0.6,43.9,1.2 c10.1,1.4,19,6.6,25.1,14.6C73.1,21.2,75.6,27.4,76.5,33.9z M73.4,43.9c0,0.2,0.1,0.3,0.2,0.4c0.1,0.2,0.4,0.4,0.6,0.4 c0.6,0.1,1.1-0.2,1.2-0.8c0-0.1,0-0.1,0-0.1c1.3-9.8-1.2-19.6-7.2-27.4c-6-7.9-14.7-12.9-24.5-14.3C30.5,0.4,17.3,5.9,9.2,16.6 l-0.7,1L6.9,5.7c0,0,0,0,0,0c0-0.4-0.3-0.7-0.7-0.8c-0.1,0-0.3-0.1-0.4,0C5.3,4.9,4.9,5.4,4.9,5.9l1.9,13.9 c0.1,0.5,0.6,0.9,1.1,0.9l14-1.9c0.3,0,0.5-0.2,0.7-0.4c0.2-0.2,0.2-0.5,0.2-0.7c0,0,0,0,0,0c0-0.3-0.2-0.5-0.4-0.7 c-0.2-0.2-0.5-0.2-0.7-0.2l-11.2,1.5l0.8-1c5.7-7.4,14-12.1,23.3-13.2s18.4,1.4,25.8,7.1C70,19,75,31.3,73.4,43.5 C73.4,43.7,73.4,43.8,73.4,43.9z"></path> </g> </g> <g> <g> <path class="st0" d="M24.6,31.4h1.6c1.3,0,1.9-0.6,1.9-1.9c0-0.5-0.2-0.9-0.5-1.2s-0.7-0.5-1.3-0.5c-0.5,0-0.8,0.1-1.2,0.4 c-0.3,0.3-0.5,0.6-0.5,1h-3.4c0-0.8,0.2-1.5,0.7-2.1s1-1.1,1.8-1.4c0.8-0.3,1.6-0.5,2.5-0.5c1.6,0,2.9,0.4,3.9,1.1 c0.9,0.8,1.4,1.8,1.4,3.1c0,0.6-0.2,1.2-0.6,1.8c-0.4,0.6-1,1-1.7,1.4c0.8,0.3,1.4,0.7,1.9,1.3c0.4,0.6,0.7,1.3,0.7,2.2 c0,1.3-0.5,2.4-1.5,3.2s-2.4,1.2-4,1.2c-1,0-1.9-0.2-2.7-0.6c-0.8-0.4-1.5-0.9-1.9-1.5c-0.4-0.7-0.6-1.4-0.6-2.2h3.4 c0,0.5,0.2,0.8,0.5,1.2c0.4,0.3,0.8,0.5,1.4,0.5c0.6,0,1.1-0.2,1.4-0.5s0.5-0.8,0.5-1.3c0-0.7-0.2-1.3-0.6-1.6 c-0.4-0.3-0.9-0.5-1.5-0.5h-1.7V31.4z"></path> <path class="st0" d="M43.8,34.1c0,2-0.4,3.5-1.3,4.6c-0.9,1.1-2.2,1.6-3.8,1.6c-1.6,0-2.9-0.5-3.8-1.6c-0.9-1.1-1.4-2.6-1.4-4.6 v-2.7c0-2,0.4-3.5,1.3-4.6c0.9-1.1,2.2-1.6,3.8-1.6c1.6,0,2.9,0.5,3.8,1.6s1.4,2.6,1.4,4.6V34.1z M40.3,31c0-1.1-0.1-1.9-0.4-2.4 c-0.3-0.5-0.7-0.8-1.3-0.8c-0.6,0-1,0.2-1.3,0.7c-0.3,0.5-0.4,1.2-0.4,2.2v3.8c0,1.1,0.1,1.9,0.4,2.4s0.7,0.8,1.3,0.8 c0.6,0,1-0.2,1.3-0.7c0.3-0.5,0.4-1.3,0.4-2.3V31z"></path> <path class="st0" d="M55.8,34.1c0,2-0.4,3.5-1.3,4.6c-0.9,1.1-2.2,1.6-3.8,1.6c-1.6,0-2.9-0.5-3.8-1.6c-0.9-1.1-1.4-2.6-1.4-4.6 v-2.7c0-2,0.4-3.5,1.3-4.6c0.9-1.1,2.2-1.6,3.8-1.6s2.9,0.5,3.8,1.6s1.4,2.6,1.4,4.6V34.1z M52.4,31c0-1.1-0.1-1.9-0.4-2.4 c-0.3-0.5-0.7-0.8-1.3-0.8c-0.6,0-1,0.2-1.3,0.7c-0.3,0.5-0.4,1.2-0.4,2.2v3.8c0,1.1,0.1,1.9,0.4,2.4c0.3,0.5,0.7,0.8,1.3,0.8 c0.6,0,1-0.2,1.3-0.7c0.3-0.5,0.4-1.3,0.4-2.3V31z"></path> </g> <g> <path class="st0" d="M30.7,49.1l1.9-5h2.4v7.3h-2v-4.5l-1.7,4.5H30L28.3,47v4.4h-2v-7.3h2.4L30.7,49.1z"></path> <path class="st0" d="M43.1,44.1v7.3h-2v-5.7h-1.7l-0.1,2.3c-0.1,1.2-0.3,2.1-0.7,2.6c-0.4,0.6-1,0.8-1.8,0.8h-0.7l0-1.6l0.2,0 c0.4,0,0.6-0.2,0.8-0.6s0.3-1,0.3-2l0.1-3.1H43.1z"></path> <path class="st0" d="M51,51.4h-2v-2.8h-2.4v2.8h-2v-7.3h2V47H49v-2.9h2V51.4z"></path> </g> </g> </svg> 