<svg width="36" height="37" viewBox="0 0 36 37" fill="none" xmlns="http://www.w3.org/2000/svg">
<circle cx="18" cy="18.3523" r="18" fill="white"/>
<path d="M25.8208 10.7303C25.645 10.4865 25.3632 10.3522 25.0273 10.3522C24.8696 10.3522 24.7006 10.3819 24.5249 10.4405L10.9171 14.9764C10.447 15.1331 10.1231 15.4532 10.0282 15.8549C9.93339 16.2566 10.0799 16.6879 10.4303 17.0384C10.4646 17.0726 10.5039 17.1014 10.547 17.1236L16.2761 20.0768L19.2294 25.8059C19.2516 25.849 19.2803 25.8883 19.3146 25.9226C19.5961 26.2042 19.9208 26.353 20.2537 26.353H20.2537C20.7578 26.353 21.188 26.0015 21.3765 25.4358L25.9125 11.828C26.0551 11.4001 26.0225 11.0102 25.8208 10.7303ZM10.9407 16.0704C10.9586 15.9943 11.0632 15.916 11.2135 15.8659L24.1294 11.5606L16.5347 19.1553L11.0488 16.3275C10.9661 16.2309 10.9253 16.1356 10.9407 16.0704ZM20.4871 25.1394C20.4426 25.2729 20.3579 25.4155 20.2537 25.4155C20.1906 25.4155 20.108 25.3746 20.0255 25.3041L17.1976 19.8182L24.7925 12.2233L20.4871 25.1394Z" fill="black"/>
</svg>
