<svg width="36" height="37" viewBox="0 0 36 37" fill="none" xmlns="http://www.w3.org/2000/svg">
<circle cx="18" cy="18.45" r="18" fill="white"/>
<path d="M26.7496 25.1172H24.2495C24.0597 25.1177 23.8724 25.0747 23.7017 24.9916C23.5311 24.9085 23.3817 24.7876 23.265 24.6379L20.8274 21.5285C20.774 21.4603 20.7007 21.4104 20.6177 21.3858C20.5347 21.3612 20.446 21.363 20.3641 21.3912C20.2822 21.4192 20.2111 21.4721 20.1606 21.5424C20.1102 21.6128 20.0829 21.6971 20.0826 21.7836V23.0337C20.0826 24.1849 18.9627 25.1172 17.5825 25.1172C17.0429 25.1221 16.5132 24.9721 16.0564 24.6849C12.5562 22.4452 10.181 19.6169 8.11853 15.2314C8.02912 15.041 7.98921 14.831 8.0025 14.6211C8.01579 14.4111 8.08185 14.2079 8.19455 14.0303C8.30726 13.8527 8.46298 13.7064 8.64727 13.6049C8.83157 13.5035 9.03848 13.4502 9.24886 13.45H11.749C11.9937 13.4494 12.2332 13.5206 12.4378 13.6549C12.6424 13.7891 12.8031 13.9804 12.9 14.2052L13.1812 14.8615C13.6062 15.8475 14.1768 16.764 14.8741 17.5804C14.8969 17.6049 14.9292 17.6182 14.9626 17.6169C14.9778 17.6183 14.9932 17.6166 15.0076 17.6117C15.0221 17.6068 15.0354 17.599 15.0467 17.5887C15.058 17.5784 15.067 17.5659 15.0732 17.5519C15.0793 17.5379 15.0825 17.5227 15.0824 17.5075V15.8772C14.5105 15.6728 14.1683 15.087 14.271 14.4885C14.3737 13.8901 14.8917 13.452 15.4991 13.45H18.8325C19.5229 13.45 20.0826 14.0097 20.0826 14.7V17.6169C20.0827 17.7074 20.1124 17.7955 20.167 17.8677C20.2217 17.9399 20.2984 17.9923 20.3855 18.017C20.4726 18.0418 20.5654 18.0374 20.6499 18.0047C20.7343 17.9719 20.8058 17.9126 20.8535 17.8356L23.1816 14.0489C23.2926 13.8652 23.4493 13.7134 23.6365 13.6084C23.8237 13.5034 24.0349 13.4488 24.2495 13.45H26.7496C26.9763 13.4501 27.1987 13.5118 27.393 13.6286C27.5873 13.7453 27.7462 13.9127 27.8527 14.1128C27.9591 14.313 28.0092 14.5383 27.9974 14.7646C27.9857 14.991 27.9126 15.2099 27.7861 15.398L25.1609 19.0388C25.1092 19.11 25.0814 19.1957 25.0814 19.2836C25.0814 19.3716 25.1092 19.4573 25.1609 19.5285L27.7653 23.1379C27.8994 23.3247 27.9794 23.5449 27.9964 23.7743C28.0135 24.0036 27.967 24.2332 27.862 24.4378C27.757 24.6424 27.5976 24.8141 27.4014 24.9339C27.2051 25.0538 26.9796 25.1172 26.7496 25.1172ZM20.4993 20.5336C20.6891 20.5332 20.8764 20.5762 21.047 20.6593C21.2176 20.7423 21.367 20.8633 21.4837 21.0129L23.9213 24.1223C23.9601 24.1724 24.0098 24.213 24.0667 24.241C24.1236 24.269 24.1861 24.2836 24.2495 24.2838H26.7496C26.8266 24.284 26.9021 24.2629 26.9678 24.2228C27.0335 24.1828 27.0868 24.1253 27.1218 24.0568C27.1569 23.9883 27.1723 23.9115 27.1663 23.8348C27.1604 23.7581 27.1333 23.6845 27.0881 23.6222L24.4839 20.0128C24.33 19.7998 24.2472 19.5437 24.2472 19.281C24.2472 19.0183 24.33 18.7622 24.4839 18.5492L27.1038 14.9189C27.145 14.8533 27.1667 14.7774 27.1662 14.7C27.1662 14.4699 26.9797 14.2833 26.7496 14.2833H24.2495C24.1785 14.2833 24.1087 14.3016 24.0467 14.3362C23.9847 14.3708 23.9326 14.4208 23.8953 14.4812L21.5671 18.2679C21.2756 18.7467 20.7009 18.973 20.1612 18.8213C19.6215 18.6698 19.2488 18.1774 19.2493 17.6169V14.7C19.2493 14.4699 19.0626 14.2833 18.8325 14.2833H15.4991C15.2688 14.2833 15.0824 14.4699 15.0824 14.7C15.0824 14.9301 15.2688 15.1168 15.4991 15.1168H15.9157V17.5075C15.9134 17.7006 15.8524 17.8885 15.741 18.0463C15.6295 18.204 15.4727 18.3242 15.2914 18.3909C15.1101 18.4575 14.9129 18.4675 14.7258 18.4195C14.5387 18.3715 14.3706 18.2678 14.2437 18.1221C13.493 17.2431 12.8785 16.2563 12.4208 15.1949L12.1342 14.5386C12.1024 14.4628 12.0488 14.3981 11.9802 14.3526C11.9117 14.3072 11.8312 14.2831 11.7489 14.2833H9.24882C9.10662 14.2841 8.97458 14.3573 8.8986 14.4776C8.86123 14.5367 8.83936 14.6043 8.83501 14.6742C8.83066 14.744 8.84397 14.8138 8.87372 14.8772C10.8895 19.1637 13.1031 21.8045 16.5094 23.987C16.8322 24.1847 17.204 24.2875 17.5825 24.2838C18.4991 24.2838 19.2493 23.7213 19.2493 23.0337V21.7836C19.2493 21.0933 19.8088 20.5336 20.4993 20.5336Z" fill="black"/>
</svg>
